PathFileType	3	(X/Y/Z)	RCH0000002 BBF 05.c3d
DataRate	CameraRate	NumFrames	NumMarkers	Units	OrigDataRate	OrigDataStartFrame	OrigNumFrames
100.0	100.0	12	23	mm	100.0	190	252
Frame#	Time	T2			T10			MAN			LASI			RASI			LPSI			RPSI			LPAT			LKNE			LANK			LMED			LHEE			LTOE			RPAT			RKNE			RANK			RMED			RHEE			RTOE			RTHI			LTHI			RTIB			LTIB			
		X1	Y1	Z1	X2	Y2	Z2	X3	Y3	Z3	X4	Y4	Z4	X5	Y5	Z5	X6	Y6	Z6	X7	Y7	Z7	X8	Y8	Z8	X9	Y9	Z9	X10	Y10	Z10	X11	Y11	Z11	X12	Y12	Z12	X13	Y13	Z13	X14	Y14	Z14	X15	Y15	Z15	X16	Y16	Z16	X17	Y17	Z17	X18	Y18	Z18	X19	Y19	Z19	X20	Y20	Z20	X21	Y21	Z21	X22	Y22	Z22	X23	Y23	Z23	

190	1.890	-1050.32192	-97.80688	950.78148	-1045.62714	-102.60782	765.85733	-915.94545	-73.04417	925.45030	-984.72203	4.28619	620.75850	-941.57247	-167.82110	621.87324	-1076.26504	-76.03568	671.94709	-1061.72902	-144.26157	671.05857	-1054.37367	-46.05085	335.87519	-1109.97654	10.36009	316.12270	-1283.72638	19.85751	103.51959	-1283.00156	-47.66911	123.56002	-1303.78953	-11.28250	155.60989	-1254.65695	-25.17516	73.73587	-845.18760	-86.34600	382.50353	-868.98208	-148.65210	337.79678	-937.70956	-206.52432	86.59383	-963.69055	-140.90079	90.54256	-986.61619	-183.60958	118.48815	-903.53439	-161.94940	73.41365	-885.14623	-223.64918	444.96700	-1076.65900	81.00891	436.24428	-880.44425	-234.79514	243.52393	-1175.27381	77.70029	221.12001	
191	1.900	-1037.25175	-97.88443	950.39540	-1030.99050	-101.00888	765.80340	-902.67074	-73.08809	926.49967	-969.85593	3.22455	619.05732	-928.83955	-169.23749	623.39875	-1062.08434	-74.64799	672.45175	-1048.23143	-143.14622	673.13363	-1038.80347	-49.47017	334.28132	-1093.89149	7.55929	314.30519	-1271.89318	18.90864	106.25620	-1271.94847	-48.73181	125.68602	-1291.10026	-11.99921	158.60531	-1244.51600	-26.50659	75.27953	-837.21539	-89.93427	380.43913	-862.62897	-151.72350	336.33344	-937.36649	-208.23370	86.22051	-963.11335	-142.49942	91.36754	-985.41100	-185.34045	119.36116	-903.42863	-163.51515	72.94720	-876.78845	-226.46001	444.00553	-1059.93202	78.85381	433.91893	-876.41316	-237.37644	241.76662	-1159.73145	75.35661	220.87093	
192	1.910	-1024.34824	-97.47424	950.75494	-1016.58578	-99.28128	766.50970	-889.59046	-72.83273	928.19118	-955.08733	1.96012	618.09506	-916.37358	-170.85509	625.68511	-1048.01916	-73.31665	673.72945	-1034.91493	-142.06325	675.94141	-1022.71570	-52.88354	333.49211	-1077.38167	4.71333	313.20739	-1259.06803	17.63319	109.29066	-1259.52029	-50.16412	127.94077	-1277.45164	-13.33761	161.66064	-1232.88849	-27.86236	77.24012	-829.98828	-94.09861	379.02848	-857.08651	-155.34176	335.63111	-937.00759	-210.01863	86.23637	-962.59936	-144.23723	92.58574	-984.29997	-187.28258	120.57145	-903.35542	-165.11928	72.80607	-869.13074	-229.72776	443.81086	-1043.00559	76.62161	432.39301	-872.80459	-240.36272	240.45043	-1143.93294	72.88483	221.40335	
193	1.920	-1011.62607	-96.60196	951.86830	-1002.45170	-97.49814	767.97750	-876.73048	-72.28005	930.51718	-940.45482	0.51706	617.93187	-904.14854	-172.63352	628.67902	-1034.07530	-72.10479	675.77848	-1021.76053	-141.06987	679.42994	-1006.05349	-56.14058	333.56738	-1060.45589	1.90421	312.90711	-1245.25395	16.00920	112.60890	-1245.63370	-51.98899	130.28875	-1262.83484	-15.36196	164.74649	-1219.69499	-29.22399	79.60370	-823.60130	-98.62073	378.18241	-852.40647	-159.35014	335.61120	-936.54318	-211.75124	86.53725	-962.02420	-145.97954	94.04937	-983.21513	-189.28578	121.96701	-903.18605	-166.64707	72.90824	-862.13199	-233.30370	444.29228	-1025.99471	74.37412	431.77943	-869.69594	-243.60380	239.53022	-1127.95475	70.34308	222.81093	
194	1.930	-999.08852	-95.31878	953.71463	-988.61259	-95.73124	770.17690	-864.10393	-71.44353	933.44699	-925.98878	-1.06470	618.59034	-892.12333	-174.51795	632.30256	-1020.25313	-71.06074	678.56236	-1008.74017	-140.21104	683.52398	-988.75143	-59.10118	334.52954	-1043.10093	-0.78979	313.43772	-1230.42938	14.03334	116.16690	-1230.22649	-54.20518	132.68516	-1247.22209	-18.08682	167.82052	-1204.87904	-30.58326	82.32869	-818.11840	-103.28278	377.81118	-848.61144	-163.58112	336.18411	-935.95641	-213.31862	87.04404	-961.32864	-147.59895	95.63689	-982.14621	-191.19872	123.43264	-902.86671	-168.00481	73.18579	-855.72926	-237.03536	445.33829	-1008.99958	72.17474	432.14063	-867.18729	-246.94879	238.97716	-1111.80770	67.78596	225.11860	
195	1.940	-986.72618	-93.69747	956.24380	-975.08034	-94.04528	773.04755	-851.70915	-70.34688	936.92405	-911.71256	-2.73295	620.05228	-880.25042	-176.44439	636.45742	-1006.55233	-70.21293	682.01011	-995.82468	-139.51445	688.12737	-970.74687	-61.65291	336.36479	-1025.28126	-3.30104	314.78557	-1214.54525	11.72581	119.88951	-1213.26401	-56.78232	135.08011	-1230.56836	-21.46683	170.82858	-1188.40912	-31.94173	85.34796	-813.56580	-107.88634	377.83976	-845.68475	-167.87144	337.26375	-935.26616	-214.63437	87.70701	-960.49464	-148.99177	97.26193	-981.10824	-192.89127	124.89579	-902.39029	-169.12611	73.58889	-849.83987	-240.77914	446.83243	-992.09178	70.08281	433.48038	-865.35705	-250.25908	238.77875	-1095.43006	65.25976	228.27329	
196	1.950	-974.51669	-91.82626	959.37805	-961.85702	-92.49313	776.50138	-839.52901	-69.02233	940.86492	-897.64363	-4.42814	622.25862	-868.48465	-178.34582	641.02959	-992.97597	-69.56725	686.01849	-982.99132	-138.98764	693.12580	-951.99059	-63.72484	339.02733	-1006.94057	-5.57793	316.89209	-1197.52688	9.13342	123.67323	-1194.74208	-59.65915	137.42253	-1212.81642	-25.39398	173.70731	-1170.27791	-33.30777	88.57320	-809.92732	-112.26857	378.21331	-843.56590	-172.07724	338.77486	-934.49703	-215.64655	88.50258	-959.52345	-150.09013	98.87489	-980.11506	-194.27163	126.32407	-901.77068	-169.97552	74.08511	-844.36516	-244.41086	448.66499	-975.30246	68.14844	435.74153	-864.22945	-253.42017	238.93186	-1078.69026	62.80127	232.14532	
197	1.960	-962.42590	-89.80152	963.01527	-948.93776	-91.11214	780.42693	-827.53171	-67.50834	945.16034	-883.79450	-6.08902	625.11241	-856.79133	-180.15837	645.89412	-979.53367	-69.10714	690.45597	-970.22989	-138.61748	698.39004	-932.45570	-65.29485	342.44567	-988.00653	-7.58759	319.66075	-1179.28032	6.32967	127.39259	-1174.68555	-62.74555	139.66259	-1193.90395	-29.70384	176.38712	-1150.49871	-34.69132	91.90086	-807.14215	-116.31461	378.89378	-842.15259	-176.08706	340.65350	-933.66073	-216.34105	89.42463	-958.41949	-150.86823	100.45827	-979.16296	-195.29573	127.71647	-901.02365	-170.54917	74.65547	-839.19710	-247.83371	450.73937	-958.61561	66.40888	438.81060	-863.75999	-256.35130	239.43220	-1061.40013	60.44036	236.54094	
198	1.970	-950.41009	-87.71975	967.03359	-936.31344	-89.92204	784.69481	-815.67292	-65.84732	949.67844	-870.17310	-7.65851	628.48456	-845.15242	-181.82718	650.91975	-966.24311	-68.79614	695.16812	-957.54662	-138.37186	703.77956	-912.14416	-66.38886	346.52980	-968.39953	-9.31554	322.96764	-1159.70206	3.41162	130.90905	-1153.14247	-65.92842	141.75181	-1173.77114	-34.19043	178.79453	-1129.09981	-36.09730	95.21876	-805.10599	-119.96480	379.85103	-841.30895	-179.83048	342.84271	-932.74918	-216.74029	90.47371	-957.18118	-151.34231	102.01765	-978.22485	-195.96846	129.09112	-900.15604	-170.87254	75.28873	-834.22805	-250.98340	452.97370	-941.96888	64.88765	442.52865	-863.83905	-259.01143	240.26456	-1043.33768	58.20513	241.22422	
199	1.980	-938.41927	-85.66995	971.29697	-923.97264	-88.92440	789.16382	-803.89927	-64.08313	954.26996	-856.78259	-9.08910	632.22151	-833.57008	-183.31115	655.97348	-953.12993	-68.58234	699.98406	-944.96538	-138.20319	709.14648	-891.09037	-67.07212	351.17815	-948.04504	-10.76265	326.67430	-1138.69047	0.49358	134.08111	-1130.17473	-69.08059	143.64082	-1152.36735	-38.62774	180.85340	-1106.11772	-37.51906	98.41268	-803.67636	-123.21590	381.05226	-840.87818	-183.28074	345.28620	-931.73705	-216.89771	91.64695	-955.79853	-151.56472	103.57090	-977.25364	-196.33773	130.47274	-899.16259	-170.99544	75.97553	-829.36275	-253.83003	455.29895	-925.26266	63.59610	446.70705	-864.30994	-261.40008	241.39640	-1024.27673	56.12699	245.94485	
200	1.990	-926.40116	-83.72698	975.66106	-911.90280	-88.10361	793.68723	-792.15255	-62.25883	958.77495	-843.62066	-10.34723	636.15419	-822.06721	-184.58632	660.92497	-940.22569	-68.40392	704.72378	-932.52608	-138.05311	714.34009	-869.36184	-67.43452	356.28341	-926.88822	-11.94046	330.64060	-1116.15702	-2.30163	136.77445	-1105.84732	-72.07128	145.27605	-1129.65577	-42.79409	182.48522	-1081.59071	-38.93320	101.37279	-802.68201	-126.11519	382.45340	-840.69716	-186.45060	347.92258	-930.59015	-216.88911	92.93084	-954.25601	-151.61383	105.13761	-976.19138	-196.48320	131.88210	-898.02894	-170.98498	76.70366	-824.53011	-256.37658	457.65553	-908.37672	62.53671	451.14571	-864.99414	-263.55253	242.77617	-1004.01863	54.24331	250.46676	
201	2.000	-914.30543	-81.94657	979.97928	-900.09038	-87.42913	798.11887	-780.37439	-60.41470	963.03051	-830.67830	-11.41605	640.10745	-810.68479	-185.64738	665.65056	-927.56407	-68.19519	709.20599	-920.28019	-137.85783	719.21177	-847.05742	-67.57346	361.73664	-904.90845	-12.86630	334.73570	-1092.03569	-4.85266	138.87079	-1080.21837	-74.77661	146.59642	-1105.61588	-46.49514	183.60907	-1055.55397	-40.29711	103.99921	-801.93587	-128.74794	383.99427	-840.61035	-189.38227	350.68188	-929.27637	-216.80176	94.29806	-952.53854	-151.58097	106.73072	-974.98133	-196.50187	133.32905	-896.73835	-170.91692	77.45511	-819.69191	-258.65375	459.98985	-891.19149	61.70656	455.65099	-865.71720	-265.52940	244.33570	-982.42069	52.59629	254.59269	
